<?xml version="1.0" standalone="no"?>
<!DOCTYPE svg PUBLIC "-//W3C//DTD SVG 20010904//EN"
 "http://www.w3.org/TR/2001/REC-SVG-20010904/DTD/svg10.dtd">
<svg version="1.0" xmlns="http://www.w3.org/2000/svg"
 width="1080.000000pt" height="1080.000000pt" viewBox="0 0 1080.000000 1080.000000"
 preserveAspectRatio="xMidYMid meet">
<metadata>
Created by potrace 1.14, written by Peter Selinger 2001-2017
</metadata>
<g transform="translate(0.000000,1080.000000) scale(0.100000,-0.100000)"
fill="#000000" stroke="none">
<path d="M319 6957 c-1 -1 -2 -156 -3 -344 -1 -222 2 -344 9 -346 5 -1 189 -2
408 -2 219 1 400 -2 403 -7 3 -4 5 -550 5 -1212 l-1 -1205 413 2 412 2 1 1203
c0 661 4 1205 8 1210 4 4 187 7 406 7 220 1 402 4 406 8 9 9 9 661 0 675 -4 7
-378 11 -1236 11 -677 0 -1231 -1 -1231 -2z"/>
<path d="M3610 6937 c-5 -12 -18 -53 -29 -92 -39 -131 -63 -210 -71 -230 -12
-32 -170 -555 -186 -615 -8 -30 -18 -64 -23 -75 -5 -11 -23 -67 -40 -125 -60
-201 -103 -345 -106 -355 -1 -5 -5 -17 -8 -25 -4 -8 -22 -67 -41 -130 -19 -63
-53 -176 -75 -250 -23 -74 -53 -173 -67 -220 -13 -47 -27 -92 -31 -100 -3 -8
-7 -19 -8 -25 -10 -39 -78 -264 -85 -280 -7 -18 -49 -154 -54 -180 -4 -15 -55
-180 -78 -250 -20 -60 -29 -97 -32 -125 -1 -13 51 -15 413 -15 358 0 415 2
422 15 4 8 17 58 29 110 20 90 50 218 71 305 5 22 12 49 14 60 2 11 9 37 14
58 5 20 7 37 4 37 -3 0 0 7 7 15 6 8 9 18 7 23 -3 4 -2 14 3 22 8 12 78 15
439 15 l430 0 11 -23 c5 -13 8 -28 5 -33 -4 -5 -2 -9 3 -9 5 0 9 -6 9 -12 1
-17 9 -54 21 -103 6 -22 13 -51 16 -65 2 -14 21 -95 40 -180 20 -85 39 -168
42 -185 10 -57 -9 -55 450 -55 233 1 426 5 428 9 3 4 -11 59 -30 122 -35 115
-96 314 -136 444 -11 39 -29 95 -38 125 -10 30 -28 89 -40 130 -12 41 -39 131
-61 200 -66 214 -266 872 -319 1050 -15 52 -33 107 -39 123 -6 15 -8 27 -5 27
4 0 2 6 -3 13 -6 6 -16 37 -23 67 -7 30 -17 62 -21 70 -4 8 -17 49 -29 90 -32
109 -38 129 -59 195 -19 59 -61 200 -62 210 -1 2 -18 57 -38 122 l-37 118
-497 2 -498 3 -9 -23z m505 -634 c9 -36 75 -322 81 -348 6 -30 18 -86 49 -220
15 -66 28 -124 30 -130 6 -28 17 -74 26 -105 5 -19 11 -46 14 -60 2 -14 18
-80 35 -148 16 -67 30 -128 30 -136 0 -11 -54 -13 -280 -13 -313 -1 -289 -7
-269 72 9 37 15 64 24 105 2 8 4 16 4 18 1 1 1 4 2 7 0 2 5 19 10 37 6 18 12
44 15 58 3 14 16 70 30 125 13 55 27 111 29 125 3 14 8 36 11 50 3 14 8 36 10
49 3 12 12 53 21 90 8 36 17 75 19 86 4 27 12 63 18 83 3 9 8 31 11 47 2 17 7
41 10 55 6 29 24 113 31 149 10 50 27 51 39 4z"/>
<path d="M5860 5400 l0 -1558 1003 0 1002 0 0 344 0 344 -590 2 -590 3 -1
1205 c-1 663 -2 1208 -3 1212 0 4 -185 7 -411 7 l-410 0 0 -1559z"/>
<path d="M8406 6952 c-2 -4 -3 -704 -2 -1557 l1 -1550 1000 0 1000 0 1 343 2
342 -589 0 -589 0 0 38 c-1 20 -2 566 -3 1212 l-2 1175 -407 2 c-225 0 -410
-2 -412 -5z"/>
</g>
</svg>
